<svg xmlns="http://www.w3.org/2000/svg" width="160" height="96" viewBox="0 0 160 96" role="img" aria-label="Loading document">
  <defs>
    <linearGradient id="page" x1="44" y1="12" x2="112" y2="84" gradientUnits="userSpaceOnUse">
      <stop stop-color="#f8fafc"/>
      <stop offset="1" stop-color="#e2e8f0"/>
    </linearGradient>
    <linearGradient id="accent" x1="54" y1="64" x2="106" y2="64" gradientUnits="userSpaceOnUse">
      <stop stop-color="#2563eb"/>
      <stop offset="1" stop-color="#14b8a6"/>
    </linearGradient>
    <filter id="shadow" x="30" y="5" width="100" height="90" color-interpolation-filters="sRGB" filterUnits="userSpaceOnUse">
      <feDropShadow dx="0" dy="8" stdDeviation="8" flood-color="#0f172a" flood-opacity=".16"/>
    </filter>
  </defs>
  <g filter="url(#shadow)">
    <path fill="url(#page)" d="M48 10h45l23 23v49a4 4 0 0 1-4 4H48a4 4 0 0 1-4-4V14a4 4 0 0 1 4-4Z"/>
    <path fill="#cbd5e1" d="M92 10v21a4 4 0 0 0 4 4h20L92 10Z"/>
    <path fill="#94a3b8" d="M58 38h44v5H58v-5Zm0 13h44v5H58v-5Zm0 13h28v5H58v-5Z"/>
    <path fill="url(#accent)" d="M53 76h54a3 3 0 0 1 3 3v7H50v-7a3 3 0 0 1 3-3Z"/>
    <circle cx="65" cy="82" r="3" fill="#fff" opacity=".9"/>
    <circle cx="80" cy="82" r="3" fill="#fff" opacity=".72"/>
    <circle cx="95" cy="82" r="3" fill="#fff" opacity=".48"/>
  </g>
</svg>
